{
  "accessors": [
    {
      "bufferView": 2,
      "componentType": 5126,
      "count": 2773,
      "max": [
        0.95349907875061035,
        1.9868621826171875,
        1.128162145614624
      ],
      "min": [
        -1.9201140403747559,
        -0.024048037827014923,
        -1.5587854385375977
      ],
      "type": "VEC3"
    },
    {
      "bufferView": 2,
      "byteOffset": 33276,
      "componentType": 5126,
      "count": 2773,
      "max": [
        0.9988219141960144,
        0.99801844358444214,
        0.99995803833007812
      ],
      "min": [
        -0.99415254592895508,
        -0.99949097633361816,
        -0.9999697208404541
      ],
      "type": "VEC3"
    },
    {
      "bufferView": 1,
      "componentType": 5126,
      "count": 2773,
      "max": [
        0.99816280603408813,
        0.8553120493888855
      ],
      "min": [
        0.0018394887447357178,
        0.001835361123085022
      ],
      "type": "VEC2"
    },
    {
      "bufferView": 0,
      "componentType": 5125,
      "count": 11064,
      "max": [
        2772
      ],
      "min": [
        0
      ],
      "type": "SCALAR"
    },
    {
      "bufferView": 2,
      "byteOffset": 66552,
      "componentType": 5126,
      "count": 1358,
      "max": [
        2.1905753612518311,
        0.13998527824878693,
        2.1905753612518311
      ],
      "min": [
        -2.1905753612518311,
        0.00790413748472929,
        -2.1905753612518311
      ],
      "type": "VEC3"
    },
    {
      "bufferView": 2,
      "byteOffset": 82848,
      "componentType": 5126,
      "count": 1358,
      "max": [
        1,
        1,
        1
      ],
      "min": [
        -1,
        -1,
        -1
      ],
      "type": "VEC3"
    },
    {
      "bufferView": 1,
      "byteOffset": 22184,
      "componentType": 5126,
      "count": 1358,
      "max": [
        0.99638152122497559,
        0.99697405099868774
      ],
      "min": [
        0.0030166204087436199,
        0.0030218157917261124
      ],
      "type": "VEC2"
    },
    {
      "bufferView": 0,
      "byteOffset": 44256,
      "componentType": 5125,
      "count": 7296,
      "max": [
        1357
      ],
      "min": [
        0
      ],
      "type": "SCALAR"
    },
    {
      "bufferView": 2,
      "byteOffset": 99144,
      "componentType": 5126,
      "count": 2759,
      "max": [
        0.97471779584884644,
        2.008033275604248,
        1.1458406448364258
      ],
      "min": [
        -1.9367746114730835,
        -0.04520706832408905,
        -1.5719695091247559
      ],
      "type": "VEC3"
    },
    {
      "bufferView": 2,
      "byteOffset": 132252,
      "componentType": 5126,
      "count": 2759,
      "max": [
        0.99691444635391235,
        1,
        0.99981236457824707
      ],
      "min": [
        -0.9988219141960144,
        -0.99818140268325806,
        -0.99966442584991455
      ],
      "type": "VEC3"
    },
    {
      "bufferView": 1,
      "byteOffset": 33048,
      "componentType": 5126,
      "count": 2759,
      "max": [
        0.99816280603408813,
        0.8553120493888855
      ],
      "min": [
        0.0018394887447357178,
        0.001835361123085022
      ],
      "type": "VEC2"
    },
    {
      "bufferView": 0,
      "byteOffset": 73440,
      "componentType": 5125,
      "count": 11064,
      "max": [
        2758
      ],
      "min": [
        0
      ],
      "type": "SCALAR"
    },
    {
      "bufferView": 2,
      "byteOffset": 165360,
      "componentType": 5126,
      "count": 1358,
      "max": [
        2.2118220329284668,
        0.16108669340610504,
        2.2118220329284668
      ],
      "min": [
        -2.2118220329284668,
        -0.013306725770235062,
        -2.2118220329284668
      ],
      "type": "VEC3"
    },
    {
      "bufferView": 2,
      "byteOffset": 181656,
      "componentType": 5126,
      "count": 1358,
      "max": [
        1,
        1,
        1
      ],
      "min": [
        -1,
        -1,
        -1
      ],
      "type": "VEC3"
    },
    {
      "bufferView": 1,
      "byteOffset": 55120,
      "componentType": 5126,
      "count": 1358,
      "max": [
        0.99638152122497559,
        0.99697405099868774
      ],
      "min": [
        0.0030166204087436199,
        0.0030218157917261124
      ],
      "type": "VEC2"
    },
    {
      "bufferView": 0,
      "byteOffset": 117696,
      "componentType": 5125,
      "count": 7296,
      "max": [
        1357
      ],
      "min": [
        0
      ],
      "type": "SCALAR"
    }
  ],
  "asset": {
    "extras": {
      "author": "Warkarma (https://sketchfab.com/warkarma)",
      "license": "CC-BY-4.0 (http://creativecommons.org/licenses/by/4.0/)",
      "source": "https://sketchfab.com/3d-models/cherry-pie-day-8-3december-4513f37e409642f085066f1470b09a25",
      "title": "Cherry Pie - Day 8 - 3December"
    },
    "generator": "Sketchfab-9.94.0",
    "version": "2.0"
  },
  "bufferViews": [
    {
      "buffer": 0,
      "byteLength": 146880,
      "byteOffset": 0,
      "name": "floatBufferViews",
      "target": 34963
    },
    {
      "buffer": 0,
      "byteLength": 65984,
      "byteOffset": 146880,
      "byteStride": 8,
      "name": "floatBufferViews",
      "target": 34962
    },
    {
      "buffer": 0,
      "byteLength": 197952,
      "byteOffset": 212864,
      "byteStride": 12,
      "name": "floatBufferViews",
      "target": 34962
    }
  ],
  "buffers": [
    {
      "byteLength": 410816,
      "uri": "scene.bin"
    }
  ],
  "extensionsUsed": [
    "KHR_materials_unlit"
  ],
  "images": [
    {
      "uri": "textures/material_baseColor.png"
    },
    {
      "uri": "textures/Plate_baseColor.png"
    }
  ],
  "materials": [
    {
      "doubleSided": true,
      "extensions": {
        "KHR_materials_unlit": {}
      },
      "name": "material",
      "pbrMetallicRoughness": {
        "baseColorFactor": [
          1,
          1,
          1,
          1
        ],
        "baseColorTexture": {
          "index": 0,
          "texCoord": 0
        },
        "metallicFactor": 0,
        "roughnessFactor": 1
      }
    },
    {
      "doubleSided": true,
      "extensions": {
        "KHR_materials_unlit": {}
      },
      "name": "Plate",
      "pbrMetallicRoughness": {
        "baseColorFactor": [
          1,
          1,
          1,
          1
        ],
        "baseColorTexture": {
          "index": 1,
          "texCoord": 0
        },
        "metallicFactor": 0,
        "roughnessFactor": 1
      }
    },
    {
      "doubleSided": false,
      "extensions": {
        "KHR_materials_unlit": {}
      },
      "name": "Outline",
      "pbrMetallicRoughness": {
        "baseColorFactor": [
          0.012518225358363446,
          0.012518225358363446,
          0.012518225358363446,
          1
        ],
        "metallicFactor": 0,
        "roughnessFactor": 1
      }
    }
  ],
  "meshes": [
    {
      "primitives": [
        {
          "attributes": {
            "NORMAL": 1,
            "POSITION": 0,
            "TEXCOORD_0": 2
          },
          "indices": 3,
          "material": 0,
          "mode": 4
        }
      ]
    },
    {
      "primitives": [
        {
          "attributes": {
            "NORMAL": 5,
            "POSITION": 4,
            "TEXCOORD_0": 6
          },
          "indices": 7,
          "material": 1,
          "mode": 4
        }
      ]
    },
    {
      "primitives": [
        {
          "attributes": {
            "NORMAL": 9,
            "POSITION": 8,
            "TEXCOORD_0": 10
          },
          "indices": 11,
          "material": 2,
          "mode": 4
        }
      ]
    },
    {
      "primitives": [
        {
          "attributes": {
            "NORMAL": 13,
            "POSITION": 12,
            "TEXCOORD_0": 14
          },
          "indices": 15,
          "material": 2,
          "mode": 4
        }
      ]
    }
  ],
  "nodes": [
    {
      "children": [
        1
      ],
      "name": "RootNode (gltf orientation matrix)",
      "rotation": [
        -0.70710678118654746,
        -0,
        -0,
        0.70710678118654757
      ]
    },
    {
      "children": [
        2
      ],
      "name": "RootNode (model correction matrix)"
    },
    {
      "children": [
        3
      ],
      "name": "root"
    },
    {
      "children": [
        4,
        6,
        8,
        10
      ],
      "matrix": [
        1,
        0,
        0,
        0,
        0,
        2.2204460492503131e-16,
        1,
        0,
        0,
        -1,
        2.2204460492503131e-16,
        0,
        0,
        0,
        0,
        1
      ],
      "name": "GLTF_SceneRootNode"
    },
    {
      "children": [
        5
      ],
      "matrix": [
        0.9884763910849137,
        0,
        -0.15137511112380669,
        0,
        0,
        1,
        0,
        0,
        0.15137511112380669,
        0,
        0.9884763910849137,
        0,
        0.30169680714607239,
        0.087156839668750763,
        0.080452442169189453,
        1
      ],
      "name": "Cake_0"
    },
    {
      "mesh": 0,
      "name": ""
    },
    {
      "children": [
        7
      ],
      "name": "Plate_1"
    },
    {
      "mesh": 1,
      "name": ""
    },
    {
      "children": [
        9
      ],
      "matrix": [
        0.9884763910849137,
        0,
        -0.15137511112380669,
        0,
        0,
        1,
        0,
        0,
        0.15137511112380669,
        0,
        0.9884763910849137,
        0,
        0.30169680714607239,
        0.087156839668750763,
        0.080452442169189453,
        1
      ],
      "name": "Cake.001_2"
    },
    {
      "mesh": 2,
      "name": ""
    },
    {
      "children": [
        11
      ],
      "name": "Plate.001_3"
    },
    {
      "mesh": 3,
      "name": ""
    }
  ],
  "samplers": [
    {
      "magFilter": 9729,
      "minFilter": 9987,
      "wrapS": 10497,
      "wrapT": 10497
    }
  ],
  "scene": 0,
  "scenes": [
    {
      "name": "OSG_Scene",
      "nodes": [
        0
      ]
    }
  ],
  "textures": [
    {
      "sampler": 0,
      "source": 0
    },
    {
      "sampler": 0,
      "source": 1
    }
  ]
}

